<svg xmlns="http://www.w3.org/2000/svg" xmlns:xlink="http://www.w3.org/1999/xlink" width="800" zoomAndPan="magnify" viewBox="0 0 600 599.999999" height="800" preserveAspectRatio="xMidYMid meet" version="1.2"><defs><clipPath id="03e3635d50"><path d="M 300 0 C 134.316406 0 0 134.316406 0 300 C 0 465.683594 134.316406 600 300 600 C 465.683594 600 600 465.683594 600 300 C 600 134.316406 465.683594 0 300 0 Z M 300 0 "/></clipPath><clipPath id="1274faa74a"><path d="M 300 0 C 134.316406 0 0 134.316406 0 300 C 0 465.683594 134.316406 600 300 600 C 465.683594 600 600 465.683594 600 300 C 600 134.316406 465.683594 0 300 0 Z M 300 0 "/></clipPath><clipPath id="cccd55b595"><rect x="0" width="600" y="0" height="600"/></clipPath><clipPath id="f78ed268c6"><path d="M 227.101562 132 L 372.601562 132 L 372.601562 318 L 227.101562 318 Z M 227.101562 132 "/></clipPath><clipPath id="30dc62da41"><path d="M 269 232 L 372.601562 232 L 372.601562 297 L 269 297 Z M 269 232 "/></clipPath><clipPath id="fd154b7000"><path d="M 269 279 L 372.601562 279 L 372.601562 345 L 269 345 Z M 269 279 "/></clipPath><clipPath id="36ed161205"><rect x="0" width="344" y="0" height="67"/></clipPath></defs><g id="94872529c6"><g clip-rule="nonzero" clip-path="url(#03e3635d50)"><g transform="matrix(1,0,0,1,0,-0.000000000000034788)"><g clip-path="url(#cccd55b595)"><g clip-rule="nonzero" clip-path="url(#1274faa74a)"><rect x="0" width="600" height="600" y="0" style="fill:#ffffff;fill-opacity:1;stroke:none;"/></g></g></g></g><g clip-rule="nonzero" clip-path="url(#f78ed268c6)"><path style=" stroke:none;fill-rule:nonzero;fill:#000000;fill-opacity:1;" d="M 238.84375 312.375 L 249.363281 317.804688 L 249.363281 186.195312 L 300.945312 157.621094 L 310.925781 163.253906 L 350.628906 185.519531 L 350.628906 195.902344 L 342.417969 200.246094 L 309.769531 217.691406 L 299.929688 222.917969 L 285.335938 215.382812 L 278.480469 211.921875 L 269.453125 207.238281 L 269.453125 232.285156 L 278.886719 237.101562 L 300.0625 248.097656 L 309.972656 242.804688 L 342.144531 225.632812 L 365.496094 213.210938 L 372.894531 209.273438 L 372.894531 172.417969 L 310.992188 137.734375 L 301.015625 132.167969 L 227.101562 173.097656 L 227.101562 306.332031 L 238.773438 312.375 Z M 238.84375 312.375 "/></g><g clip-rule="nonzero" clip-path="url(#30dc62da41)"><path style=" stroke:none;fill-rule:nonzero;fill:#000000;fill-opacity:1;" d="M 372.894531 232.691406 L 363.59375 237.644531 L 302.710938 270.15625 L 299.929688 271.648438 L 288.320312 265.675781 L 269.453125 255.902344 L 269.453125 280.949219 L 300.0625 296.761719 L 302.847656 295.269531 L 372.894531 257.941406 Z M 372.894531 232.691406 "/></g><g clip-rule="nonzero" clip-path="url(#fd154b7000)"><path style=" stroke:none;fill-rule:nonzero;fill:#000000;fill-opacity:1;" d="M 269.453125 303.144531 L 269.453125 328.1875 L 300.0625 344.003906 L 372.894531 305.179688 L 372.894531 279.929688 L 299.929688 318.890625 Z M 269.453125 303.144531 "/></g><g transform="matrix(1,0,0,1,131,379)"><g clip-path="url(#36ed161205)"><g style="fill:#000000;fill-opacity:1;"><g transform="translate(0.60746, 49.759972)"><path style="stroke:none" d="M 22.578125 1.625 C 18.742188 1.625 15.296875 1.03125 12.234375 -0.15625 C 9.171875 -1.351562 6.691406 -3.113281 4.796875 -5.4375 C 2.898438 -7.769531 1.78125 -10.613281 1.4375 -13.96875 L 11.609375 -15.859375 C 11.960938 -13.078125 13.179688 -10.847656 15.265625 -9.171875 C 17.359375 -7.492188 19.945312 -6.65625 23.03125 -6.65625 C 25.8125 -6.65625 28.003906 -7.226562 29.609375 -8.375 C 31.222656 -9.53125 32.03125 -11 32.03125 -12.78125 C 32.03125 -14.21875 31.421875 -15.382812 30.203125 -16.28125 C 28.992188 -17.175781 27.015625 -17.90625 24.265625 -18.46875 L 17.8125 -19.703125 C 12.675781 -20.703125 8.921875 -22.265625 6.546875 -24.390625 C 4.179688 -26.523438 3 -29.421875 3 -33.078125 C 3 -36.128906 3.789062 -38.773438 5.375 -41.015625 C 6.96875 -43.253906 9.164062 -44.992188 11.96875 -46.234375 C 14.78125 -47.472656 17.96875 -48.09375 21.53125 -48.09375 C 24.789062 -48.09375 27.738281 -47.535156 30.375 -46.421875 C 33.007812 -45.316406 35.160156 -43.765625 36.828125 -41.765625 C 38.503906 -39.765625 39.539062 -37.414062 39.9375 -34.71875 L 29.953125 -32.5 C 29.648438 -34.757812 28.710938 -36.550781 27.140625 -37.875 C 25.578125 -39.207031 23.664062 -39.875 21.40625 -39.875 C 19.144531 -39.875 17.335938 -39.328125 15.984375 -38.234375 C 14.640625 -37.148438 13.96875 -35.78125 13.96875 -34.125 C 13.96875 -32.726562 14.519531 -31.617188 15.625 -30.796875 C 16.738281 -29.972656 18.488281 -29.320312 20.875 -28.84375 L 27.46875 -27.59375 C 32.78125 -26.726562 36.675781 -25.1875 39.15625 -22.96875 C 41.632812 -20.75 42.875 -17.75 42.875 -13.96875 C 42.875 -10.75 42.015625 -7.960938 40.296875 -5.609375 C 38.578125 -3.265625 36.191406 -1.472656 33.140625 -0.234375 C 30.097656 1.003906 26.578125 1.625 22.578125 1.625 Z M 22.578125 1.625 "/></g></g><g style="fill:#000000;fill-opacity:1;"><g transform="translate(49.741907, 49.759972)"><path style="stroke:none" d="M 27.140625 1.625 C 22.003906 1.625 17.554688 0.613281 13.796875 -1.40625 C 10.035156 -3.425781 7.117188 -6.296875 5.046875 -10.015625 C 2.984375 -13.734375 1.953125 -18.140625 1.953125 -23.234375 C 1.953125 -28.316406 2.929688 -32.71875 4.890625 -36.4375 C 6.847656 -40.15625 9.617188 -43.023438 13.203125 -45.046875 C 16.796875 -47.078125 21.03125 -48.09375 25.90625 -48.09375 C 29.726562 -48.09375 33.148438 -47.394531 36.171875 -46 C 39.203125 -44.601562 41.695312 -42.625 43.65625 -40.0625 C 45.613281 -37.5 46.851562 -34.453125 47.375 -30.921875 L 37.1875 -28.390625 C 36.625 -31.515625 35.363281 -33.988281 33.40625 -35.8125 C 31.445312 -37.644531 28.945312 -38.5625 25.90625 -38.5625 C 21.988281 -38.5625 18.875 -37.179688 16.5625 -34.421875 C 14.257812 -31.660156 13.109375 -27.929688 13.109375 -23.234375 C 13.160156 -18.578125 14.457031 -14.863281 17 -12.09375 C 19.539062 -9.332031 22.96875 -7.953125 27.28125 -7.953125 C 30.84375 -7.953125 33.84375 -9.039062 36.28125 -11.21875 C 38.71875 -13.394531 40.21875 -16.3125 40.78125 -19.96875 L 51.21875 -18.53125 C 50.738281 -14.4375 49.429688 -10.878906 47.296875 -7.859375 C 45.171875 -4.835938 42.390625 -2.5 38.953125 -0.84375 C 35.515625 0.800781 31.578125 1.625 27.140625 1.625 Z M 27.140625 1.625 "/></g></g><g style="fill:#000000;fill-opacity:1;"><g transform="translate(107.358841, 49.759972)"><path style="stroke:none" d="M 38.296875 1.171875 C 35.992188 1.171875 34.066406 0.53125 32.515625 -0.75 C 30.972656 -2.03125 29.878906 -3.757812 29.234375 -5.9375 L 27.203125 -12.71875 C 26.816406 -14.113281 26.164062 -15.265625 25.25 -16.171875 C 24.332031 -17.085938 23.203125 -17.546875 21.859375 -17.546875 L 14.75 -17.546875 L 14.75 0 L 3.59375 0 L 3.59375 -46.453125 L 26.6875 -46.453125 C 32.207031 -46.453125 36.566406 -45.171875 39.765625 -42.609375 C 42.960938 -40.046875 44.5625 -36.546875 44.5625 -32.109375 C 44.5625 -29.054688 43.59375 -26.410156 41.65625 -24.171875 C 39.726562 -21.929688 37.019531 -20.378906 33.53125 -19.515625 L 33.53125 -19.4375 C 34.75 -18.96875 35.707031 -18.273438 36.40625 -17.359375 C 37.101562 -16.441406 37.648438 -15.3125 38.046875 -13.96875 L 39.546875 -8.484375 C 39.765625 -7.785156 40.078125 -7.195312 40.484375 -6.71875 C 40.898438 -6.238281 41.457031 -6 42.15625 -6 C 42.757812 -6 43.34375 -6.171875 43.90625 -6.515625 C 44.476562 -6.867188 44.976562 -7.328125 45.40625 -7.890625 L 47.765625 -2.609375 C 46.628906 -1.472656 45.234375 -0.5625 43.578125 0.125 C 41.929688 0.820312 40.171875 1.171875 38.296875 1.171875 Z M 14.75 -25.1875 L 25.25 -25.1875 C 27.726562 -25.1875 29.707031 -25.769531 31.1875 -26.9375 C 32.664062 -28.113281 33.40625 -29.707031 33.40625 -31.71875 C 33.40625 -33.664062 32.664062 -35.238281 31.1875 -36.4375 C 29.707031 -37.632812 27.726562 -38.234375 25.25 -38.234375 L 14.75 -38.234375 Z M 14.75 -25.1875 "/></g></g><g style="fill:#000000;fill-opacity:1;"><g transform="translate(160.734522, 49.759972)"><path style="stroke:none" d="M 3.59375 0 L 3.59375 -46.453125 L 14.75 -46.453125 L 14.75 0 Z M 3.59375 0 "/></g></g><g style="fill:#000000;fill-opacity:1;"><g transform="translate(184.356244, 49.759972)"><path style="stroke:none" d="M 3.59375 0 L 3.59375 -46.453125 L 27.28125 -46.453125 C 32.457031 -46.453125 36.445312 -45.351562 39.25 -43.15625 C 42.050781 -40.96875 43.453125 -37.847656 43.453125 -33.796875 C 43.453125 -31.234375 42.773438 -29.09375 41.421875 -27.375 C 40.078125 -25.65625 38.144531 -24.46875 35.625 -23.8125 L 35.625 -23.75 C 38.457031 -23.1875 40.644531 -21.976562 42.1875 -20.125 C 43.726562 -18.28125 44.5 -15.878906 44.5 -12.921875 C 44.5 -8.828125 43.050781 -5.648438 40.15625 -3.390625 C 37.269531 -1.128906 33.171875 0 27.859375 0 Z M 14.75 -27.203125 L 25.515625 -27.203125 C 27.691406 -27.203125 29.375 -27.691406 30.5625 -28.671875 C 31.757812 -29.648438 32.359375 -31.035156 32.359375 -32.828125 C 32.359375 -34.515625 31.757812 -35.835938 30.5625 -36.796875 C 29.375 -37.753906 27.691406 -38.234375 25.515625 -38.234375 L 14.75 -38.234375 Z M 14.75 -8.28125 L 25.84375 -8.28125 C 28.28125 -8.28125 30.148438 -8.78125 31.453125 -9.78125 C 32.753906 -10.78125 33.40625 -12.195312 33.40625 -14.03125 C 33.40625 -15.988281 32.753906 -17.488281 31.453125 -18.53125 C 30.148438 -19.570312 28.28125 -20.09375 25.84375 -20.09375 L 14.75 -20.09375 Z M 14.75 -8.28125 "/></g></g><g style="fill:#000000;fill-opacity:1;"><g transform="translate(235.774436, 49.759972)"><path style="stroke:none" d="M 14.875 0 L 14.875 -36.9375 L 0.984375 -36.9375 L 0.984375 -46.453125 L 39.9375 -46.453125 L 39.9375 -36.9375 L 26.03125 -36.9375 L 26.03125 0 Z M 14.875 0 "/></g></g><g style="fill:#000000;fill-opacity:1;"><g transform="translate(281.972621, 49.759972)"><path style="stroke:none" d="M 27.671875 1.625 C 22.492188 1.625 17.976562 0.59375 14.125 -1.46875 C 10.28125 -3.53125 7.289062 -6.421875 5.15625 -10.140625 C 3.019531 -13.859375 1.953125 -18.222656 1.953125 -23.234375 C 1.953125 -28.234375 3.019531 -32.59375 5.15625 -36.3125 C 7.289062 -40.03125 10.28125 -42.921875 14.125 -44.984375 C 17.976562 -47.054688 22.492188 -48.09375 27.671875 -48.09375 C 32.890625 -48.09375 37.421875 -47.054688 41.265625 -44.984375 C 45.117188 -42.921875 48.109375 -40.03125 50.234375 -36.3125 C 52.367188 -32.59375 53.4375 -28.234375 53.4375 -23.234375 C 53.4375 -18.222656 52.367188 -13.859375 50.234375 -10.140625 C 48.109375 -6.421875 45.117188 -3.53125 41.265625 -1.46875 C 37.421875 0.59375 32.890625 1.625 27.671875 1.625 Z M 27.671875 -7.953125 C 30.628906 -7.953125 33.203125 -8.582031 35.390625 -9.84375 C 37.585938 -11.113281 39.285156 -12.898438 40.484375 -15.203125 C 41.679688 -17.503906 42.28125 -20.179688 42.28125 -23.234375 C 42.28125 -26.316406 41.679688 -29.007812 40.484375 -31.3125 C 39.285156 -33.625 37.585938 -35.410156 35.390625 -36.671875 C 33.203125 -37.929688 30.628906 -38.5625 27.671875 -38.5625 C 24.753906 -38.5625 22.195312 -37.929688 20 -36.671875 C 17.800781 -35.410156 16.101562 -33.625 14.90625 -31.3125 C 13.707031 -29.007812 13.109375 -26.316406 13.109375 -23.234375 C 13.109375 -20.179688 13.707031 -17.503906 14.90625 -15.203125 C 16.101562 -12.898438 17.800781 -11.113281 20 -9.84375 C 22.195312 -8.582031 24.753906 -7.953125 27.671875 -7.953125 Z M 27.671875 -7.953125 "/></g></g></g></g><g style="fill:#000000;fill-opacity:1;"><g transform="translate(251.554916, 473.673432)"><path style="stroke:none" d="M 1.53125 0 L 1.53125 -18.046875 L 13.875 -18.046875 L 13.875 -16.15625 L 3.609375 -16.15625 L 3.609375 -10.234375 L 12.84375 -10.234375 L 12.84375 -8.390625 L 3.609375 -8.390625 L 3.609375 -1.890625 L 14.125 -1.890625 L 14.125 0 Z M 1.53125 0 "/></g></g><g style="fill:#000000;fill-opacity:1;"><g transform="translate(268.396132, 473.673432)"><path style="stroke:none" d="M 1.53125 0 L 1.53125 -18.046875 L 9.796875 -18.046875 C 11.585938 -18.046875 12.972656 -17.625 13.953125 -16.78125 C 14.941406 -15.9375 15.4375 -14.738281 15.4375 -13.1875 C 15.4375 -12.195312 15.1875 -11.367188 14.6875 -10.703125 C 14.195312 -10.035156 13.5 -9.582031 12.59375 -9.34375 L 12.59375 -9.3125 C 13.6875 -9.09375 14.523438 -8.609375 15.109375 -7.859375 C 15.703125 -7.117188 16 -6.179688 16 -5.046875 C 16 -3.441406 15.457031 -2.195312 14.375 -1.3125 C 13.300781 -0.4375 11.785156 0 9.828125 0 Z M 3.65625 -10.234375 L 9.546875 -10.234375 C 10.753906 -10.234375 11.6875 -10.488281 12.34375 -11 C 13 -11.507812 13.328125 -12.238281 13.328125 -13.1875 C 13.328125 -14.125 13 -14.851562 12.34375 -15.375 C 11.6875 -15.894531 10.753906 -16.15625 9.546875 -16.15625 L 3.65625 -16.15625 Z M 3.65625 -1.890625 L 9.546875 -1.890625 C 10.910156 -1.890625 11.972656 -2.171875 12.734375 -2.734375 C 13.503906 -3.296875 13.890625 -4.097656 13.890625 -5.140625 C 13.890625 -6.148438 13.503906 -6.9375 12.734375 -7.5 C 11.972656 -8.0625 10.910156 -8.34375 9.546875 -8.34375 L 3.65625 -8.34375 Z M 3.65625 -1.890625 "/></g></g><g style="fill:#000000;fill-opacity:1;"><g transform="translate(287.233667, 473.673432)"><path style="stroke:none" d="M 10.59375 0.640625 C 8.644531 0.640625 6.941406 0.238281 5.484375 -0.5625 C 4.023438 -1.363281 2.894531 -2.484375 2.09375 -3.921875 C 1.289062 -5.367188 0.890625 -7.066406 0.890625 -9.015625 C 0.890625 -10.953125 1.289062 -12.644531 2.09375 -14.09375 C 2.894531 -15.550781 4.023438 -16.679688 5.484375 -17.484375 C 6.941406 -18.285156 8.644531 -18.6875 10.59375 -18.6875 C 12.5625 -18.6875 14.273438 -18.285156 15.734375 -17.484375 C 17.191406 -16.679688 18.320312 -15.550781 19.125 -14.09375 C 19.925781 -12.644531 20.328125 -10.953125 20.328125 -9.015625 C 20.328125 -7.066406 19.925781 -5.367188 19.125 -3.921875 C 18.320312 -2.484375 17.191406 -1.363281 15.734375 -0.5625 C 14.273438 0.238281 12.5625 0.640625 10.59375 0.640625 Z M 10.59375 -1.25 C 12.132812 -1.25 13.46875 -1.570312 14.59375 -2.21875 C 15.726562 -2.875 16.609375 -3.78125 17.234375 -4.9375 C 17.859375 -6.101562 18.171875 -7.460938 18.171875 -9.015625 C 18.171875 -10.578125 17.859375 -11.9375 17.234375 -13.09375 C 16.609375 -14.257812 15.726562 -15.164062 14.59375 -15.8125 C 13.46875 -16.46875 12.132812 -16.796875 10.59375 -16.796875 C 9.070312 -16.796875 7.738281 -16.46875 6.59375 -15.8125 C 5.457031 -15.164062 4.578125 -14.257812 3.953125 -13.09375 C 3.328125 -11.9375 3.015625 -10.578125 3.015625 -9.015625 C 3.015625 -7.460938 3.328125 -6.101562 3.953125 -4.9375 C 4.578125 -3.78125 5.457031 -2.875 6.59375 -2.21875 C 7.738281 -1.570312 9.070312 -1.25 10.59375 -1.25 Z M 10.59375 -1.25 "/></g></g><g style="fill:#000000;fill-opacity:1;"><g transform="translate(310.524532, 473.673432)"><path style="stroke:none" d="M 10.59375 0.640625 C 8.644531 0.640625 6.941406 0.238281 5.484375 -0.5625 C 4.023438 -1.363281 2.894531 -2.484375 2.09375 -3.921875 C 1.289062 -5.367188 0.890625 -7.066406 0.890625 -9.015625 C 0.890625 -10.953125 1.289062 -12.644531 2.09375 -14.09375 C 2.894531 -15.550781 4.023438 -16.679688 5.484375 -17.484375 C 6.941406 -18.285156 8.644531 -18.6875 10.59375 -18.6875 C 12.5625 -18.6875 14.273438 -18.285156 15.734375 -17.484375 C 17.191406 -16.679688 18.320312 -15.550781 19.125 -14.09375 C 19.925781 -12.644531 20.328125 -10.953125 20.328125 -9.015625 C 20.328125 -7.066406 19.925781 -5.367188 19.125 -3.921875 C 18.320312 -2.484375 17.191406 -1.363281 15.734375 -0.5625 C 14.273438 0.238281 12.5625 0.640625 10.59375 0.640625 Z M 10.59375 -1.25 C 12.132812 -1.25 13.46875 -1.570312 14.59375 -2.21875 C 15.726562 -2.875 16.609375 -3.78125 17.234375 -4.9375 C 17.859375 -6.101562 18.171875 -7.460938 18.171875 -9.015625 C 18.171875 -10.578125 17.859375 -11.9375 17.234375 -13.09375 C 16.609375 -14.257812 15.726562 -15.164062 14.59375 -15.8125 C 13.46875 -16.46875 12.132812 -16.796875 10.59375 -16.796875 C 9.070312 -16.796875 7.738281 -16.46875 6.59375 -15.8125 C 5.457031 -15.164062 4.578125 -14.257812 3.953125 -13.09375 C 3.328125 -11.9375 3.015625 -10.578125 3.015625 -9.015625 C 3.015625 -7.460938 3.328125 -6.101562 3.953125 -4.9375 C 4.578125 -3.78125 5.457031 -2.875 6.59375 -2.21875 C 7.738281 -1.570312 9.070312 -1.25 10.59375 -1.25 Z M 10.59375 -1.25 "/></g></g><g style="fill:#000000;fill-opacity:1;"><g transform="translate(333.815398, 473.673432)"><path style="stroke:none" d="M 1.53125 0 L 1.53125 -18.046875 L 3.65625 -18.046875 L 3.65625 -9.65625 L 3.6875 -9.65625 L 11.28125 -18.046875 L 13.890625 -18.046875 L 7.390625 -10.875 L 14.359375 0 L 11.84375 0 L 6.015625 -9.375 L 3.65625 -6.890625 L 3.65625 0 Z M 1.53125 0 "/></g></g></g></svg>